<svg width="335" height="98" viewBox="0 0 335 98" fill="none" xmlns="http://www.w3.org/2000/svg">
<path d="M198.489 97.3789V79.5289H133.668V97.3789H198.489ZM161.911 55.3069C156.614 55.3069 152.495 51.2862 152.495 46.2836C152.495 41.281 156.614 37.2604 161.911 37.2604C167.208 37.2604 171.327 41.281 171.327 46.2836C171.327 51.2862 167.208 55.3069 161.911 55.3069ZM47.3638 35.8911L13.1421 5.88638L0 21.9689L35.2037 50.9971L47.3638 35.8966V35.8911ZM22.8472 69.2345L42.754 75.1209L63.4518 5.78818L43.5396 0L22.8472 69.2345ZM284.101 53.8394L335 35.5965L328.432 18.2374L277.827 37.555L284.101 53.8339V53.8394ZM215.848 53.8394L266.747 35.5965L260.179 18.2374L209.575 37.555L215.848 53.8339V53.8394ZM307.838 73.157H329.217V31.3795H307.838V73.157ZM271.554 73.157H292.933V20.2014H271.554V73.157ZM239.683 73.157H261.063V31.3795H239.683V73.157ZM203.301 73.157H224.681V1.96395H203.301V73.157ZM192.319 20.2014H171.332V91.6944H192.319V20.2014ZM156.232 73.157C171.038 73.157 181.534 60.9969 181.534 46.1909C181.534 31.3849 171.043 19.2248 156.232 19.2248C141.42 19.2248 131.028 31.3849 131.028 46.1909C131.028 60.9969 141.42 73.157 156.232 73.157ZM77.2867 53.8394L128.186 35.5965L121.617 18.2374L71.013 37.555L77.2867 53.8339V53.8394ZM101.018 73.157H122.397V31.3795H101.018V73.157ZM64.7338 73.157H86.1135V20.2014H64.7338V73.157Z" fill="black"/>
</svg>
